<?xml version="1.0" standalone="no"?>
<!DOCTYPE svg PUBLIC "-//W3C//DTD SVG 20010904//EN"
 "http://www.w3.org/TR/2001/REC-SVG-20010904/DTD/svg10.dtd">
<svg version="1.0" xmlns="http://www.w3.org/2000/svg"
 width="224.000000pt" height="238.000000pt" viewBox="0 0 224.000000 238.000000"
 preserveAspectRatio="xMidYMid meet">

<g transform="translate(0.000000,238.000000) scale(0.100000,-0.100000)"
fill="#000000" stroke="none">
<path d="M374 2082 c3 -6 1 -14 -5 -18 -8 -4 -7 -9 2 -16 11 -8 11 -9 -1 -5
-8 2 -14 12 -14 21 1 9 0 16 -2 16 -12 0 -74 -47 -78 -60 -4 -8 -9 -22 -12
-30 -5 -13 -4 -13 5 0 6 8 11 13 11 10 7 -39 6 -70 -1 -70 -5 0 -9 6 -9 14 0
8 -4 17 -9 21 -13 7 -12 -53 1 -87 6 -16 15 -28 20 -28 5 0 6 -6 2 -12 -5 -9
-2 -8 9 1 15 12 17 11 15 -10 -2 -19 2 -24 17 -22 10 1 27 -3 36 -8 11 -6 20
-5 24 1 3 5 13 10 22 10 11 0 9 -5 -8 -20 -13 -10 -19 -19 -12 -20 6 0 15 5
18 10 3 6 18 8 33 5 22 -4 23 -4 7 4 -18 8 -17 9 10 12 19 3 49 -5 83 -23 29
-15 56 -27 60 -26 4 1 21 -5 38 -14 26 -14 58 -23 97 -27 5 -1 5 -5 2 -11 -3
-5 7 -12 22 -16 15 -4 35 -12 43 -18 13 -10 13 -9 1 7 -7 9 -23 17 -35 17 -19
1 -20 1 -3 11 14 8 24 6 43 -6 14 -9 33 -18 42 -21 9 -2 38 -9 65 -15 26 -6
47 -13 47 -16 0 -3 -12 -2 -26 1 -17 5 -23 3 -19 -4 3 -5 0 -10 -8 -10 -8 0
-17 7 -21 15 -3 9 -17 14 -33 14 -27 -2 -27 -2 -3 -6 14 -3 29 -12 33 -20 6
-10 17 -12 37 -8 16 3 31 2 35 -4 3 -7 0 -8 -9 -5 -34 13 -14 -7 21 -21 29
-12 42 -13 59 -5 16 9 28 8 55 -4 l34 -15 -31 6 c-17 3 -34 0 -38 -5 -4 -6 3
-8 16 -5 17 3 19 2 10 -5 -11 -7 -10 -10 3 -16 22 -8 27 -8 21 3 -9 14 44 23
60 10 8 -7 18 -9 21 -5 4 4 1 11 -7 16 -8 6 -10 10 -5 10 6 0 17 -5 25 -10 13
-9 13 -12 -2 -21 -10 -5 -18 -16 -18 -23 0 -15 146 -90 175 -89 50 1 52 3 47
28 -5 26 -18 33 -24 13 -3 -8 -9 -8 -24 0 -20 12 -18 13 33 17 25 2 30 -1 26
-14 -9 -28 21 21 40 64 11 25 12 34 4 23 -8 -10 -16 -18 -18 -18 -10 0 -3 59
9 69 9 9 12 7 12 -11 1 -21 2 -21 11 -5 5 9 7 22 3 29 -5 7 -3 8 6 3 8 -5 11
-3 8 6 -3 8 -10 13 -16 12 -7 -2 -8 8 -2 29 13 44 21 48 15 7 -5 -33 -5 -33 7
-9 7 14 20 30 29 37 23 17 31 53 12 53 -11 0 -13 3 -5 13 14 17 19 51 7 52 -5
0 -21 6 -35 13 -23 12 -24 12 -6 -2 11 -9 17 -18 14 -22 -10 -9 -49 16 -42 28
7 11 -29 3 -56 -13 -10 -6 -7 -7 11 -3 15 3 30 1 33 -5 4 -7 1 -8 -8 -5 -12 5
-16 0 -16 -20 0 -14 -4 -26 -9 -26 -5 0 -7 9 -4 20 7 26 -13 26 -27 1 -13 -25
-13 -41 0 -21 5 8 10 11 10 5 0 -14 -20 -42 -20 -30 -1 6 -6 -1 -11 -14 -5
-13 -7 -26 -4 -29 3 -3 5 0 5 6 0 6 10 16 23 22 16 8 13 3 -11 -19 -28 -27
-31 -34 -21 -52 8 -16 8 -20 0 -14 -8 5 -10 -1 -5 -21 5 -19 4 -25 -5 -20 -6
4 -12 19 -12 34 -1 24 -3 23 -9 -8 -4 -19 -8 -30 -9 -23 0 7 -11 10 -28 7 -15
-3 -38 -2 -52 1 -20 5 -22 8 -10 17 10 7 8 8 -11 4 -14 -3 -33 -6 -42 -6 -10
0 -18 -7 -18 -16 0 -9 -5 -14 -12 -12 -18 6 -22 28 -4 28 8 0 20 9 26 20 6 11
7 20 3 19 -22 -4 -43 3 -57 17 -12 11 -20 13 -33 5 -17 -10 -16 -10 3 -11 11
0 28 -6 37 -12 15 -11 11 -13 -25 -14 -35 -2 -38 0 -18 6 l25 8 -28 1 c-16 1
-37 6 -48 11 -21 12 -26 40 -6 40 6 1 1 7 -13 15 -29 17 -44 19 -35 6 3 -6 -8
-8 -25 -6 -21 3 -30 0 -30 -10 0 -10 -10 -15 -30 -15 -16 0 -30 5 -30 10 0 6
3 10 8 11 24 2 45 8 50 15 4 4 0 5 -10 1 -12 -4 -15 0 -14 18 2 17 -3 25 -18
29 -27 7 -36 -3 -13 -15 9 -6 17 -14 17 -19 0 -5 -13 -1 -30 8 -16 9 -30 25
-30 35 0 14 -5 17 -19 12 -11 -3 -22 -1 -26 4 -3 7 0 8 9 5 9 -3 16 -3 16 0 0
10 -52 29 -75 28 -11 -1 -27 7 -35 18 -8 11 -27 21 -42 22 -16 1 -28 7 -28 12
0 5 -8 2 -17 -6 -31 -26 -43 -30 -43 -14 0 8 9 18 21 21 l21 7 -21 15 c-12 8
-21 23 -21 34 0 31 -15 22 -17 -11 -1 -18 2 -28 7 -25 6 4 10 1 10 -5 0 -7 -7
-9 -16 -6 -9 3 -17 6 -19 6 -2 0 -1 19 2 43 3 23 4 40 2 37 -22 -26 -32 -43
-22 -36 13 7 12 -9 -3 -82 -3 -17 -1 -23 8 -19 7 2 12 12 12 21 -1 9 2 16 7
16 5 0 9 -8 9 -19 0 -13 -14 -24 -45 -35 -25 -10 -45 -23 -45 -29 0 -8 4 -7
12 1 7 7 27 12 44 12 18 0 36 5 39 10 3 6 12 10 18 10 7 0 4 -7 -5 -14 -24
-18 -22 -27 5 -22 12 2 31 -1 42 -5 16 -7 13 -8 -12 -6 -18 2 -29 -1 -26 -6 3
-5 -9 -2 -25 7 -35 18 -66 21 -57 6 3 -6 -5 -10 -19 -10 -14 0 -28 4 -31 10
-6 10 -40 8 -51 -3 -4 -4 -12 -7 -17 -7 -6 0 -8 3 -4 6 8 8 -25 44 -35 38 -8
-5 -9 -4 -13 32 -1 11 -5 38 -9 60 -5 28 -4 35 3 24 9 -13 11 -13 11 1 0 9 10
24 23 33 12 9 16 14 8 10 -9 -5 -12 -3 -7 4 4 7 15 12 25 12 10 0 21 3 25 7
11 11 67 12 60 2 -3 -5 -17 -10 -32 -10 -22 -1 -20 -3 10 -8 20 -4 44 -14 53
-21 13 -11 18 -10 30 6 18 24 19 40 1 25 -11 -9 -14 -8 -12 6 1 14 -8 17 -47
19 -26 1 -51 5 -55 9 -4 4 3 6 14 3 12 -3 28 -2 35 3 10 6 8 8 -6 7 -11 -1
-31 2 -44 6 -15 5 -21 5 -17 -2z m-40 -41 c-3 -3 -11 -6 -16 -6 -6 0 -13 -6
-16 -14 -3 -8 0 -11 7 -7 7 5 9 1 5 -8 -8 -21 -21 -20 -21 2 0 22 13 39 32 39
8 0 12 -3 9 -6z m143 -15 c0 -8 -6 -12 -14 -9 -7 3 -10 9 -7 14 8 14 21 11 21
-5z m-181 -154 c1 -13 1 -22 0 -20 0 2 -10 13 -20 25 -18 21 -18 22 0 21 12
-1 20 -10 20 -26z m371 12 c-3 -3 -12 -4 -19 -1 -8 3 -5 6 6 6 11 1 17 -2 13
-5z m61 -33 c-2 -5 6 -16 17 -24 11 -9 17 -18 14 -22 -4 -3 -18 5 -32 19 -22
22 -22 28 1 35 1 1 1 -3 0 -8z m-388 -25 c0 -2 -7 -6 -15 -10 -8 -3 -15 -1
-15 4 0 6 7 10 15 10 8 0 15 -2 15 -4z m368 -14 c6 -18 -15 -14 -22 4 -4 10
-1 14 6 12 6 -2 14 -10 16 -16z m-185 -4 c12 -6 38 -11 57 -11 35 1 35 1 5 -6
-30 -7 -30 -7 -5 -13 13 -4 22 -10 18 -13 -5 -5 -93 36 -107 50 -9 9 10 5 32
-7z m312 -58 c8 -13 2 -13 -29 1 -14 7 -23 16 -20 20 6 10 39 -5 49 -21z m605
9 c0 -15 -18 -19 -23 -6 -3 8 1 14 9 14 8 0 14 -4 14 -8z m40 1 c0 -5 -5 -10
-11 -10 -5 0 -7 5 -4 10 3 6 8 10 11 10 2 0 4 -4 4 -10z m-736 -32 c-4 -6 6
-8 27 -4 31 5 31 5 9 -4 -32 -14 -72 2 -64 25 5 12 10 13 20 4 8 -6 11 -16 8
-21z m718 0 c-5 -7 -12 -22 -15 -33 -4 -16 -5 -15 -6 6 -1 27 6 39 22 39 6 0
5 -5 -1 -12z m45 6 c-3 -3 -12 -4 -19 -1 -8 3 -5 6 6 6 11 1 17 -2 13 -5z
m-552 -23 c3 -5 1 -12 -5 -16 -5 -3 -10 -1 -10 5 0 6 -5 8 -12 4 -7 -4 -8 -3
-4 4 9 14 23 15 31 3z m455 -52 c0 -11 -4 -17 -10 -14 -5 3 -10 15 -10 26 0
11 5 17 10 14 6 -3 10 -15 10 -26z m-195 -49 c3 -5 1 -10 -4 -10 -6 0 -11 5
-11 10 0 6 2 10 4 10 3 0 8 -4 11 -10z m161 -23 c1 -13 -1 -29 -6 -37 -11 -18
-33 -1 -27 22 4 14 2 18 -9 14 -9 -3 -12 -1 -9 4 3 6 15 10 26 10 13 0 18 4
13 13 -4 6 -3 9 1 5 5 -5 9 -18 11 -31z m-81 13 c-3 -5 -2 -10 4 -10 7 0 7 -8
0 -27 -5 -14 -8 -32 -5 -40 7 -16 -20 -18 -30 -1 -4 6 -3 8 3 5 15 -9 22 37 9
55 -7 9 -20 18 -31 21 -11 3 -4 5 18 6 23 1 36 -3 32 -9z m-62 -17 c-7 -2 -19
-2 -25 0 -7 3 -2 5 12 5 14 0 19 -2 13 -5z m65 -89 c20 5 23 4 12 -4 -13 -9
-13 -10 0 -10 11 -1 11 -3 -3 -11 -14 -8 -23 -7 -36 5 -10 9 -23 16 -29 16 -7
0 -12 5 -12 10 0 7 7 7 21 0 11 -7 33 -9 47 -6z m79 -37 c-1 -5 -6 -8 -10 -8
-4 1 -19 1 -34 1 -20 0 -24 3 -14 9 17 11 62 9 58 -2z"/>
<path d="M1822 2070 c-55 -13 -106 -64 -122 -122 -8 -28 -7 -47 6 -84 16 -47
16 -48 -15 -118 -198 -460 -331 -780 -331 -799 0 -13 8 -31 18 -39 9 -9 94
-48 187 -88 195 -83 204 -82 239 2 27 67 14 82 -118 137 -65 27 -106 50 -106
59 0 14 41 114 208 505 72 169 102 229 117 233 11 4 35 17 53 31 136 102 31
323 -136 283z m106 -97 c43 -47 22 -131 -40 -152 -89 -31 -164 93 -94 157 40
38 97 36 134 -5z"/>
<path d="M879 2003 c-39 -89 -39 -90 -21 -105 27 -24 371 -170 390 -166 20 4
71 93 72 125 0 15 -10 28 -29 37 -72 38 -355 156 -372 156 -14 0 -26 -14 -40
-47z"/>
<path d="M910 1765 c33 -19 50 -18 26 0 -11 8 -27 15 -35 15 -10 -1 -7 -6 9
-15z"/>
<path d="M1045 1710 c-3 -6 1 -7 9 -4 18 7 21 14 7 14 -6 0 -13 -4 -16 -10z"/>
<path d="M1496 1685 c-9 -26 -7 -32 5 -12 6 10 9 21 6 23 -2 3 -7 -2 -11 -11z"/>
<path d="M463 1588 c-11 -13 -26 -40 -34 -60 -21 -61 -6 -78 107 -121 115 -44
127 -50 127 -61 0 -4 -69 -173 -154 -376 -139 -336 -156 -370 -182 -381 -46
-19 -87 -84 -87 -136 0 -84 41 -141 121 -165 67 -20 151 18 185 84 21 41 21
105 0 146 -20 38 -37 -12 194 547 77 187 140 347 140 356 0 9 -8 23 -18 32
-19 18 -345 157 -366 157 -7 0 -22 -10 -33 -22z m-19 -1059 c52 -24 66 -104
25 -148 -60 -64 -159 -23 -159 65 0 35 5 47 31 68 33 28 64 32 103 15z"/>
<path d="M1116 1552 c-2 -4 4 -9 15 -9 11 -1 17 2 14 8 -7 11 -22 12 -29 1z"/>
<path d="M1120 1526 c0 -2 7 -6 15 -10 8 -3 15 -1 15 4 0 6 -7 10 -15 10 -8 0
-15 -2 -15 -4z"/>
<path d="M1839 1433 c-9 -11 -10 -14 -1 -9 18 11 15 -35 -5 -59 -15 -19 -15
-18 -10 15 5 31 5 32 -5 10 -5 -14 -14 -33 -19 -43 -6 -11 -6 -24 1 -35 10
-15 11 -14 7 6 -3 12 -1 20 3 17 4 -3 8 -21 7 -40 l-1 -36 -13 26 c-17 32 -27
32 -21 0 3 -13 1 -22 -4 -19 -4 3 -11 -3 -15 -13 -4 -10 -10 -20 -14 -23 -4
-3 -9 -14 -11 -25 -1 -11 -7 -23 -13 -27 -6 -5 -5 -8 3 -8 6 0 12 -8 13 -17 0
-16 2 -15 10 2 l9 20 -4 -20 c-2 -11 -7 -29 -11 -40 -7 -20 -6 -20 9 -1 19 23
30 16 21 -13 -5 -18 -10 -19 -26 -10 -12 6 -18 17 -15 26 3 8 0 21 -8 28 -12
12 -15 12 -20 0 -3 -8 -1 -15 4 -15 6 0 10 -7 10 -16 0 -13 -3 -14 -13 -5 -10
8 -14 7 -15 -2 -1 -6 -4 -25 -8 -41 -5 -19 -3 -27 3 -23 6 4 16 1 22 -7 13
-15 58 -31 80 -27 7 1 10 -2 6 -8 -3 -6 0 -9 8 -5 18 7 37 48 36 77 -1 17 -3
16 -9 -8 l-9 -30 2 30 c2 22 7 30 20 29 13 -2 15 1 7 11 -6 7 -8 20 -4 29 3 9
1 16 -5 16 -15 0 -13 41 3 63 20 26 26 21 13 -13 -9 -23 -8 -32 2 -42 11 -10
12 -10 7 -1 -4 7 -2 21 3 30 10 17 10 16 11 -2 1 -20 1 -20 15 -1 20 26 19 37
-2 29 -11 -4 -14 -3 -9 5 4 7 14 12 23 12 9 0 13 6 10 14 -3 7 3 20 14 29 10
9 19 26 19 36 0 11 4 22 10 26 5 3 6 13 3 22 -4 11 -3 14 5 9 7 -4 12 -2 12 3
0 14 -6 14 -31 1 -22 -12 -26 -32 -4 -24 12 5 12 2 -1 -25 -19 -38 -23 -39
-16 -6 3 16 0 25 -8 25 -10 0 -10 3 0 15 10 12 10 15 -4 15 -18 0 -20 8 -7 29
7 11 10 9 16 -8 5 -18 9 -20 21 -10 8 6 14 16 14 21 0 6 -8 4 -17 -3 -15 -12
-16 -12 -9 6 4 11 4 16 0 12 -4 -4 -13 -2 -20 4 -8 6 -20 9 -29 5 -8 -3 -14 0
-12 6 4 18 -19 20 -34 1z m41 -104 c0 -11 -5 -16 -13 -13 -7 2 -13 13 -13 23
0 11 6 17 13 14 7 -3 13 -14 13 -24z m-32 -60 c-1 -20 -4 -26 -9 -17 -12 18
-11 61 0 53 5 -3 9 -19 9 -36z m-83 -228 c3 -5 1 -12 -5 -16 -5 -3 -10 1 -10
9 0 18 6 21 15 7z m55 -15 c0 -11 -19 -15 -25 -6 -3 5 1 10 9 10 9 0 16 -2 16
-4z"/>
<path d="M443 1346 c3 -8 -1 -20 -8 -26 -11 -9 -12 -17 -5 -30 13 -25 13 -30
-5 -30 -9 0 -20 -12 -25 -26 -13 -32 -12 -37 0 -29 16 10 11 -35 -6 -52 -14
-14 -15 -9 -10 51 3 37 9 72 12 78 4 7 3 8 -4 4 -7 -4 -12 -18 -12 -32 0 -13
-3 -24 -7 -24 -5 0 -8 -20 -9 -45 -1 -44 -8 -64 -19 -53 -3 3 -1 17 5 32 5 15
6 25 1 22 -12 -8 -42 -101 -38 -118 2 -7 2 -9 -1 -5 -7 13 -33 -45 -27 -61 4
-10 0 -12 -11 -8 -10 4 -14 1 -12 -6 7 -19 38 -22 38 -4 0 9 5 16 10 16 6 0
10 4 10 10 0 5 -7 7 -15 4 -8 -4 -15 -1 -15 6 0 6 5 8 12 4 7 -5 8 -3 3 7 -8
12 -6 12 8 0 10 -7 16 -19 16 -25 -3 -19 19 -63 34 -69 7 -3 19 -2 25 2 28 17
44 127 20 136 -7 3 -14 17 -14 31 l-2 26 16 -23 c8 -12 18 -35 21 -50 8 -36
25 -27 46 25 9 21 11 35 6 31 -6 -3 -11 -1 -11 6 0 8 -5 7 -17 -2 -16 -13 -17
-12 -5 3 8 10 19 16 25 15 7 -1 12 8 11 20 0 18 2 20 13 12 14 -12 17 -4 14
36 -2 17 0 18 9 5 9 -12 10 -7 5 19 -5 22 -4 31 3 27 6 -3 14 -2 17 4 4 6 3
10 -2 9 -18 -3 -33 1 -33 10 0 4 11 6 25 3 15 -2 25 0 25 7 0 6 -11 11 -24 11
-13 0 -26 7 -30 15 -6 17 9 21 19 5 3 -5 14 -10 23 -10 13 0 11 4 -7 17 -19
13 -28 14 -42 4 -15 -9 -19 -8 -19 4 0 9 -6 12 -17 8 -11 -4 -14 -3 -9 5 4 7
2 12 -4 12 -7 0 -10 -6 -7 -14z m42 -103 l-6 -28 15 25 c9 15 15 19 15 10 0
-22 -23 -50 -35 -42 -20 14 -23 41 -6 51 23 14 23 14 17 -16z m-18 -155 c-3
-8 -6 -5 -6 6 -1 11 2 17 5 13 3 -3 4 -12 1 -19z m-87 -58 c0 -11 -4 -20 -9
-20 -7 0 -8 17 -2 38 4 10 11 -2 11 -18z m27 -2 c-3 -8 -6 -5 -6 6 -1 11 2 17
5 13 3 -3 4 -12 1 -19z"/>
<path d="M406 1323 c-6 -14 -5 -15 5 -6 7 7 10 15 7 18 -3 3 -9 -2 -12 -12z"/>
<path d="M430 1009 c0 -5 5 -7 10 -4 6 3 10 8 10 11 0 2 -4 4 -10 4 -5 0 -10
-5 -10 -11z"/>
<path d="M304 945 c11 -8 22 -12 25 -9 6 6 -19 24 -34 24 -5 -1 -1 -7 9 -15z"/>
<path d="M849 923 c-1 -2 -2 -6 -4 -10 -1 -5 -14 -34 -28 -66 -15 -32 -27 -62
-27 -68 0 -5 -9 -28 -19 -49 -11 -22 -15 -40 -10 -40 5 0 12 7 14 15 3 8 7 23
11 32 3 11 8 13 12 7 4 -6 15 -13 25 -17 23 -9 22 -38 -4 -66 -12 -13 -18 -26
-13 -30 12 -8 18 -91 6 -91 -5 0 -8 12 -5 28 l3 27 -12 -25 -11 -25 -5 24 c-2
13 0 26 5 30 4 3 8 27 8 53 0 35 -3 44 -12 36 -7 -5 -10 -24 -8 -41 4 -27 3
-28 -3 -7 -5 17 -10 21 -16 12 -4 -7 -4 -22 -1 -33 6 -19 4 -21 -17 -17 -22 4
-24 1 -25 -30 -1 -21 2 -30 7 -22 4 7 13 9 20 5 10 -6 9 -11 -4 -20 -15 -11
-14 -13 11 -20 15 -4 44 -9 63 -11 30 -3 33 -1 18 10 -15 11 -15 13 5 26 20
12 21 12 8 -3 -9 -11 -9 -17 -2 -17 6 0 17 15 25 33 11 26 11 35 0 47 -13 15
-3 45 46 140 4 10 23 15 50 16 29 1 37 -2 26 -8 -9 -5 -20 -7 -25 -4 -16 10
-39 -5 -45 -30 -4 -13 -11 -24 -16 -24 -6 0 -10 -10 -10 -22 0 -17 7 -12 29
24 29 46 30 47 63 35 18 -7 36 -16 40 -22 4 -5 34 -10 67 -10 35 0 65 -5 72
-12 16 -16 5 -17 -21 -1 -15 10 -22 10 -32 0 -11 -11 -10 -12 3 -7 10 4 20 2
24 -4 3 -6 15 -11 25 -11 10 0 20 -5 22 -11 2 -6 16 -11 31 -11 15 0 24 -4 21
-9 -3 -5 2 -10 10 -10 25 -2 29 -4 56 -18 14 -8 41 -16 60 -17 26 -2 30 -1 15
5 -11 5 -24 6 -29 3 -5 -3 -6 1 -1 8 5 9 1 10 -16 6 -21 -6 -22 -6 -6 5 14 8
22 8 30 0 6 -6 25 -10 41 -10 l31 1 -30 8 c-22 6 -24 8 -9 9 11 0 35 8 52 16
38 19 107 18 90 -2 -6 -7 -16 -13 -22 -13 -6 0 -4 5 4 10 12 8 9 10 -12 10
-19 0 -28 -5 -28 -16 0 -12 -6 -15 -21 -11 -12 3 -18 3 -15 0 3 -4 -3 -12 -14
-20 -27 -19 -8 -48 45 -66 42 -14 63 -15 105 -3 24 7 24 6 6 -8 -11 -9 -14
-16 -8 -16 7 0 11 -5 10 -12 -2 -7 2 -12 9 -13 6 0 15 -3 19 -7 4 -5 16 -8 26
-8 10 0 18 -4 18 -8 0 -5 11 -14 25 -20 23 -11 27 -9 35 11 8 21 9 21 9 -5 1
-14 -4 -28 -10 -30 -9 -3 -9 -10 0 -26 7 -13 17 -20 23 -16 6 4 8 -1 4 -13 -4
-12 -1 -25 6 -31 14 -11 18 -12 44 -12 8 0 12 -5 9 -10 -4 -6 4 -5 19 1 14 7
23 16 20 20 -10 16 6 9 26 -11 11 -11 15 -20 8 -20 -6 0 -9 -2 -6 -5 7 -7 58
16 58 26 0 4 -7 10 -16 13 -16 6 -11 26 7 26 6 0 7 -6 3 -12 -6 -10 -4 -10 8
0 14 11 16 10 11 -9 -4 -15 -3 -20 6 -15 6 4 9 11 6 16 -3 5 0 12 5 15 7 5 5
12 -7 21 -13 11 -14 14 -3 12 8 -2 20 -10 27 -18 11 -13 12 -12 12 5 0 11 -6
34 -14 50 -13 28 -14 28 -9 4 4 -21 1 -27 -15 -32 -15 -4 -19 -10 -14 -23 4
-11 3 -15 -4 -11 -6 4 -23 1 -38 -7 -46 -24 -134 16 -135 62 0 12 -4 22 -10
22 -5 0 1 20 14 44 26 48 23 59 -13 64 -13 2 -33 8 -45 13 -17 8 -16 9 7 4 19
-4 26 -2 22 5 -3 5 1 10 9 10 9 0 16 -5 16 -11 0 -7 11 -9 30 -5 18 3 29 2 25
-3 -3 -5 -1 -12 4 -15 5 -4 12 -2 16 3 3 6 13 8 23 5 9 -3 6 2 -8 10 l-25 15
24 1 c13 0 21 3 18 7 -9 8 -59 12 -72 4 -15 -8 -96 -7 -101 1 -3 4 2 5 10 2 9
-3 16 -2 16 4 0 15 -43 23 -52 9 -7 -11 -12 -3 -9 16 0 4 -6 7 -14 7 -9 0 -29
7 -44 15 -16 8 -43 17 -61 20 -43 8 -72 24 -65 36 8 13 -8 12 -22 -2 -8 -8
-19 -6 -42 5 -19 10 -41 14 -57 10 -19 -5 -25 -4 -20 5 4 7 0 11 -11 11 -15 0
-16 2 -3 10 10 6 11 10 3 10 -7 0 -13 5 -13 11 0 5 5 7 12 3 7 -4 8 -3 4 5 -4
6 -13 11 -19 10 -7 -1 -25 3 -41 10 -16 6 -38 8 -50 5 -18 -6 -19 -5 -8 8 11
13 4 19 -50 39 -34 12 -70 22 -80 22 -12 -1 -16 3 -12 10 4 7 3 9 -1 4 -5 -4
-19 0 -33 9 -15 10 -34 13 -50 10 -18 -5 -23 -4 -13 3 11 7 9 11 -9 21 -26 14
-84 -5 -76 -25 2 -7 -9 -28 -24 -46 -16 -19 -29 -29 -30 -23 0 5 5 15 10 20 6
6 12 20 15 32 4 22 30 55 39 50 2 -2 8 0 12 5 4 4 -5 6 -19 5 -15 -1 -28 -4
-28 -5z m68 -39 c-3 -3 -12 -4 -19 -1 -8 3 -5 6 6 6 11 1 17 -2 13 -5z m14
-21 c9 -63 8 -72 -16 -87 -14 -9 -25 -25 -25 -36 0 -19 -1 -19 -17 -2 -19 18
-29 72 -14 72 5 0 11 -9 14 -21 6 -24 27 -17 27 10 0 9 5 22 12 29 8 8 8 15
-2 27 -10 12 -10 15 4 15 9 0 17 -3 17 -7z m92 -30 c4 -4 -7 -13 -24 -20 -36
-15 -48 -11 -29 12 13 16 42 20 53 8z m124 -11 c9 -5 6 -11 -9 -21 -18 -11
-20 -11 -15 2 3 9 1 18 -6 21 -8 3 -6 5 3 5 8 0 20 -3 27 -7z m-67 -22 c0 -5
-2 -10 -4 -10 -3 0 -8 5 -11 10 -3 6 -1 10 4 10 6 0 11 -4 11 -10z m110 6 c0
-3 -4 -8 -10 -11 -5 -3 -10 -1 -10 4 0 6 5 11 10 11 6 0 10 -2 10 -4z m-360
-16 c0 -5 -4 -10 -10 -10 -5 0 -10 5 -10 10 0 6 5 10 10 10 6 0 10 -4 10 -10z
m158 -21 c-11 -6 -24 -6 -34 -1 -12 7 -8 9 18 10 26 1 30 -1 16 -9z m298 -59
c8 0 14 -7 14 -17 0 -14 -3 -14 -22 3 -13 10 -25 20 -27 21 -1 1 1 8 5 15 7
10 9 9 12 -4 2 -10 10 -18 18 -18z m-166 10 c0 -5 -5 -10 -11 -10 -5 0 -7 5
-4 10 3 6 8 10 11 10 2 0 4 -4 4 -10z m79 -34 c9 -11 9 -16 -1 -22 -7 -4 -10
-4 -6 1 4 4 0 14 -10 21 -9 7 -12 14 -6 14 6 0 17 -6 23 -14z m119 -58 c-3 -7
-11 -13 -18 -13 -7 0 -15 6 -17 13 -3 7 4 12 17 12 13 0 20 -5 18 -12z m282
-20 c0 -4 -9 -8 -20 -8 -11 0 -20 2 -20 4 0 2 -3 12 -6 21 -6 14 -3 14 20 4
14 -7 26 -16 26 -21z m-124 -64 c17 -14 17 -15 1 -10 -10 3 -23 6 -28 6 -5 0
-9 5 -9 10 0 14 13 12 36 -6z m81 -10 c-9 -9 -58 -14 -53 -5 2 3 17 8 32 9 15
1 25 -1 21 -4z m-780 -10 c-3 -3 -12 -4 -19 -1 -8 3 -5 6 6 6 11 1 17 -2 13
-5z m936 -62 c-23 -23 -37 -23 -52 0 -10 16 -7 18 29 18 38 0 39 -1 23 -18z
m18 -79 c-10 -17 -10 -16 -11 3 0 23 13 41 18 25 2 -6 -1 -18 -7 -28z m51 -43
c-2 -7 3 -10 12 -7 8 3 17 -1 20 -10 5 -11 2 -13 -11 -8 -10 4 -27 8 -37 10
-11 1 -22 7 -24 13 -2 7 3 10 12 6 21 -8 20 5 -1 23 -14 12 -13 12 7 0 14 -9
24 -21 22 -27z m112 -29 c4 -5 -3 -7 -14 -4 -23 6 -26 13 -6 13 8 0 17 -4 20
-9z"/>
<path d="M790 720 c0 -5 5 -10 11 -10 5 0 7 5 4 10 -3 6 -8 10 -11 10 -2 0 -4
-4 -4 -10z"/>
<path d="M1380 715 c24 -8 46 -13 48 -11 5 5 -59 26 -77 25 -9 0 4 -7 29 -14z"/>
<path d="M1487 679 c7 -7 15 -10 18 -7 3 3 -2 9 -12 12 -14 6 -15 5 -6 -5z"/>
<path d="M736 663 c-6 -14 -5 -15 5 -6 7 7 10 15 7 18 -3 3 -9 -2 -12 -12z"/>
<path d="M949 575 c-16 -37 -29 -74 -27 -83 4 -21 398 -186 417 -175 7 5 25
37 39 72 21 53 23 65 11 76 -13 13 -339 156 -387 170 -20 6 -26 0 -53 -60z"/>
<path d="M875 621 c-3 -5 -1 -12 5 -16 5 -3 10 1 10 9 0 18 -6 21 -15 7z"/>
<path d="M1879 581 c11 -7 11 -9 0 -14 -8 -3 1 -6 20 -6 29 -1 33 -4 27 -24
-3 -14 2 -34 15 -52 11 -17 27 -46 36 -65 8 -20 17 -29 20 -22 3 7 -1 20 -8
28 -8 9 -9 18 -3 22 12 9 14 42 2 39 -6 -1 -13 4 -16 12 -3 8 0 11 7 7 20 -13
12 5 -16 35 -16 16 -36 29 -46 29 -10 0 -15 5 -12 10 3 6 -4 10 -17 10 -17 0
-19 -3 -9 -9z m77 -78 c-3 -4 -12 -1 -19 7 -10 10 -9 11 2 5 10 -6 12 -2 7 16
l-6 24 12 -23 c6 -12 8 -25 4 -29z m18 -29 c9 -24 2 -26 -12 -4 -7 11 -8 20
-3 20 5 0 12 -7 15 -16z"/>
<path d="M1380 560 c8 -5 20 -10 25 -10 6 0 3 5 -5 10 -8 5 -19 10 -25 10 -5
0 -3 -5 5 -10z"/>
<path d="M1888 538 c9 -9 15 -9 24 0 9 9 7 12 -12 12 -19 0 -21 -3 -12 -12z"/>
<path d="M1830 290 c-9 -6 -10 -10 -3 -10 6 0 15 5 18 10 8 12 4 12 -15 0z"/>
</g>
</svg>
